<?xml version="1.0" encoding="utf-8"?>
<!-- Generated by Mocodo 4.3.3 -->
<svg width="657" height="937" viewBox="0 0 657 937" xmlns="http://www.w3.org/2000/svg">
<rect x="0" y="0" width="657" height="937" fill="#FFFFFF" stroke="none" stroke-width="0"/>

<!-- Association HAS -->
<g>
	<line x1="424" y1="90" x2="245" y2="90" stroke="#000000" stroke-width="1"/>
	<line x1="78" y1="90" x2="245" y2="90" stroke="#000000" stroke-width="1"/>
	<g>
		<path d="M258 61 a14 14 90 0 1 14 14 V89 h-54 V75 a14 14 90 0 1 14 -14" fill="#FFFFFF" stroke="#FFFFFF" stroke-width="0"/>
		<path d="M272 89 v16 a14 14 90 0 1 -14 14 H232 a14 14 90 0 1 -14 -14 V89 H54" fill="#FFFFFF" stroke="#FFFFFF" stroke-width="0"/>
		<rect x="218" y="61" width="54" height="58" fill="none" rx="14" stroke="#000000" stroke-width="1.5"/>
		<line x1="218" y1="89" x2="272" y2="89" stroke="#000000" stroke-width="1.5"/>
		<text x="226" y="82.3" fill="#000000" font-family="Copperplate" font-size="18">HAS</text>
	</g>
	<text x="347" y="82" fill="#000000" font-family="Futura" font-size="11">1,1</text>
	<text x="114" y="106" fill="#000000" font-family="Futura" font-size="11">0,N</text>
</g>

<!-- Association PLACES -->
<g>
	<line x1="424" y1="90" x2="245" y2="301" stroke="#000000" stroke-width="1"/>
	<line x1="424" y1="301" x2="245" y2="301" stroke="#000000" stroke-width="1"/>
	<g>
		<path d="M275 272 a14 14 90 0 1 14 14 V300 h-88 V286 a14 14 90 0 1 14 -14" fill="#FFFFFF" stroke="#FFFFFF" stroke-width="0"/>
		<path d="M289 300 v16 a14 14 90 0 1 -14 14 H215 a14 14 90 0 1 -14 -14 V300 H88" fill="#FFFFFF" stroke="#FFFFFF" stroke-width="0"/>
		<rect x="201" y="272" width="88" height="58" fill="none" rx="14" stroke="#000000" stroke-width="1.5"/>
		<line x1="201" y1="300" x2="289" y2="300" stroke="#000000" stroke-width="1.5"/>
		<text x="209" y="293.3" fill="#000000" font-family="Copperplate" font-size="18">PLACES</text>
	</g>
	<text x="346" y="151.91" fill="#000000" font-family="Futura" font-size="11">0,N</text>
	<text x="342" y="293" fill="#000000" font-family="Futura" font-size="11">1,1</text>
</g>

<!-- Association ORDERITEM -->
<g>
	<line x1="424" y1="301" x2="78" y2="537" stroke="#000000" stroke-width="1"/>
	<line x1="78" y1="705" x2="78" y2="537" stroke="#000000" stroke-width="1"/>
	<g>
		<path d="M119 491 a14 14 90 0 1 14 14 V519 h-110 V505 a14 14 90 0 1 14 -14" fill="#FFFFFF" stroke="#FFFFFF" stroke-width="0"/>
		<path d="M133 519 v50 a14 14 90 0 1 -14 14 H37 a14 14 90 0 1 -14 -14 V519 H110" fill="#FFFFFF" stroke="#FFFFFF" stroke-width="0"/>
		<rect x="23" y="491" width="110" height="92" fill="none" rx="14" stroke="#000000" stroke-width="1.5"/>
		<line x1="23" y1="519" x2="133" y2="519" stroke="#000000" stroke-width="1.5"/>
		<text x="30" y="512.3" fill="#000000" font-family="Copperplate" font-size="18">OrderItem</text>
		<text x="30" y="537.1" fill="#000000" font-family="Gill Sans" font-size="15">quantity</text>
		<text x="30" y="554.1" fill="#000000" font-family="Gill Sans" font-size="15">unitPrice</text>
		<text x="30" y="571" fill="#000000" font-family="Gill Sans" font-size="15">vatRate</text>
	</g>
	<text x="341" y="338.46" fill="#000000" font-family="Futura" font-size="11">1,N</text>
	<text x="83" y="599" fill="#000000" font-family="Futura" font-size="11">0,N</text>
</g>

<!-- Association HAS_ADDRESS -->
<g>
	<line x1="424" y1="301" x2="245" y2="537" stroke="#000000" stroke-width="1"/>
	<line x1="424" y1="537" x2="245" y2="537" stroke="#000000" stroke-width="1"/>
	<g>
		<path d="M306 508 a14 14 90 0 1 14 14 V536 h-150 V522 a14 14 90 0 1 14 -14" fill="#FFFFFF" stroke="#FFFFFF" stroke-width="0"/>
		<path d="M320 536 v16 a14 14 90 0 1 -14 14 H184 a14 14 90 0 1 -14 -14 V536 H150" fill="#FFFFFF" stroke="#FFFFFF" stroke-width="0"/>
		<rect x="170" y="508" width="150" height="58" fill="none" rx="14" stroke="#000000" stroke-width="1.5"/>
		<line x1="170" y1="536" x2="320" y2="536" stroke="#000000" stroke-width="1.5"/>
		<text x="178" y="529.3" fill="#000000" font-family="Copperplate" font-size="18">HAS_ADDRESS</text>
	</g>
	<text x="341" y="376.5" fill="#000000" font-family="Futura" font-size="11">1,N</text>
	<text x="326" y="553" fill="#000000" font-family="Futura" font-size="11">1,1</text>
</g>

<!-- Association BELONGS_TO -->
<g>
	<line x1="78" y1="705" x2="245" y2="705" stroke="#000000" stroke-width="1"/>
	<line x1="424" y1="705" x2="245" y2="705" stroke="#000000" stroke-width="1"/>
	<g>
		<path d="M300 676 a14 14 90 0 1 14 14 V704 h-138 V690 a14 14 90 0 1 14 -14" fill="#FFFFFF" stroke="#FFFFFF" stroke-width="0"/>
		<path d="M314 704 v16 a14 14 90 0 1 -14 14 H190 a14 14 90 0 1 -14 -14 V704 H138" fill="#FFFFFF" stroke="#FFFFFF" stroke-width="0"/>
		<rect x="176" y="676" width="138" height="58" fill="none" rx="14" stroke="#000000" stroke-width="1.5"/>
		<line x1="176" y1="704" x2="314" y2="704" stroke="#000000" stroke-width="1.5"/>
		<text x="183" y="697.3" fill="#000000" font-family="Copperplate" font-size="18">BELONGS_TO</text>
	</g>
	<text x="152" y="721" fill="#000000" font-family="Futura" font-size="11">1,1</text>
	<text x="349" y="721" fill="#000000" font-family="Futura" font-size="11">0,N</text>
</g>

<!-- Association PLANTED_AT -->
<g>
	<line x1="78" y1="705" x2="78" y2="856" stroke="#000000" stroke-width="1"/>
	<line x1="245" y1="856" x2="78" y2="856" stroke="#000000" stroke-width="1"/>
	<g>
		<path d="M130 827 a14 14 90 0 1 14 14 V855 h-132 V841 a14 14 90 0 1 14 -14" fill="#FFFFFF" stroke="#FFFFFF" stroke-width="0"/>
		<path d="M144 855 v16 a14 14 90 0 1 -14 14 H26 a14 14 90 0 1 -14 -14 V855 H132" fill="#FFFFFF" stroke="#FFFFFF" stroke-width="0"/>
		<rect x="12" y="827" width="132" height="58" fill="none" rx="14" stroke="#000000" stroke-width="1.5"/>
		<line x1="12" y1="855" x2="144" y2="855" stroke="#000000" stroke-width="1.5"/>
		<text x="19" y="848.3" fill="#000000" font-family="Copperplate" font-size="18">PLANTED_AT</text>
	</g>
	<text x="83" y="819" fill="#000000" font-family="Futura" font-size="11">1,1</text>
	<text x="172" y="872" fill="#000000" font-family="Futura" font-size="11">0,N</text>
</g>

<!-- Association LOCATED_IN -->
<g>
	<line x1="245" y1="856" x2="424" y2="856" stroke="#000000" stroke-width="1"/>
	<line x1="583" y1="856" x2="424" y2="856" stroke="#000000" stroke-width="1"/>
	<g>
		<path d="M475 827 a14 14 90 0 1 14 14 V855 h-130 V841 a14 14 90 0 1 14 -14" fill="#FFFFFF" stroke="#FFFFFF" stroke-width="0"/>
		<path d="M489 855 v16 a14 14 90 0 1 -14 14 H373 a14 14 90 0 1 -14 -14 V855 H130" fill="#FFFFFF" stroke="#FFFFFF" stroke-width="0"/>
		<rect x="359" y="827" width="130" height="58" fill="none" rx="14" stroke="#000000" stroke-width="1.5"/>
		<line x1="359" y1="855" x2="489" y2="855" stroke="#000000" stroke-width="1.5"/>
		<text x="366" y="848.3" fill="#000000" font-family="Copperplate" font-size="18">LOCATED_IN</text>
	</g>
	<text x="299" y="872" fill="#000000" font-family="Futura" font-size="11">1,1</text>
	<text x="494" y="872" fill="#000000" font-family="Futura" font-size="11">0,N</text>
</g>

<!-- Entity ROLE -->
<g>
	<g>
		<rect x="47" y="52" width="62" height="30" fill="#FFFFFF" stroke="none" stroke-width="0" opacity="1"/>
		<rect x="47" y="82" width="62" height="46" fill="#FFFFFF" stroke="none" stroke-width="0" opacity="1"/>
		<rect x="47" y="52" width="62" height="76" fill="none" stroke="#000000" stroke-width="1.5" opacity="1"/>
		<line x1="47" y1="82" x2="109" y2="82" stroke="#000000" stroke-width="1.5"/>
	</g>
	<text x="56" y="73.3" fill="#000000" font-family="Copperplate" font-size="18">Role</text>
	<text x="55" y="99.1" fill="#000000" font-family="Gill Sans" font-size="15">roleId</text>
	<line x1="55" y1="102" x2="93" y2="102" stroke="#000000" stroke-width="1"/>
	<text x="55" y="116.1" fill="#000000" font-family="Gill Sans" font-size="15">name</text>
</g>

<!-- Entity USER -->
<g>
	<g>
		<rect x="370" y="9" width="108" height="30" fill="#FFFFFF" stroke="none" stroke-width="0" opacity="1"/>
		<rect x="370" y="39" width="108" height="132" fill="#FFFFFF" stroke="none" stroke-width="0" opacity="1"/>
		<rect x="370" y="9" width="108" height="162" fill="none" stroke="#000000" stroke-width="1.5" opacity="1"/>
		<line x1="370" y1="39" x2="478" y2="39" stroke="#000000" stroke-width="1.5"/>
	</g>
	<text x="402" y="30.3" fill="#000000" font-family="Copperplate" font-size="18">User</text>
	<text x="378" y="56" fill="#000000" font-family="Gill Sans" font-size="15">userId</text>
	<line x1="378" y1="59" x2="418" y2="59" stroke="#000000" stroke-width="1"/>
	<text x="378" y="73.1" fill="#000000" font-family="Gill Sans" font-size="15">email</text>
	<text x="378" y="90.1" fill="#000000" font-family="Gill Sans" font-size="15">password</text>
	<text x="378" y="107.1" fill="#000000" font-family="Gill Sans" font-size="15">firstName</text>
	<text x="378" y="124" fill="#000000" font-family="Gill Sans" font-size="15">lastName</text>
	<text x="378" y="141" fill="#000000" font-family="Gill Sans" font-size="15">avatarUrl</text>
	<text x="378" y="158" fill="#000000" font-family="Gill Sans" font-size="15">isEmailVerified</text>
</g>

<!-- Entity ORDER -->
<g>
	<g>
		<rect x="365" y="195" width="118" height="30" fill="#FFFFFF" stroke="none" stroke-width="0" opacity="1"/>
		<rect x="365" y="225" width="118" height="182" fill="#FFFFFF" stroke="none" stroke-width="0" opacity="1"/>
		<rect x="365" y="195" width="118" height="212" fill="none" stroke="#000000" stroke-width="1.5" opacity="1"/>
		<line x1="365" y1="225" x2="483" y2="225" stroke="#000000" stroke-width="1.5"/>
	</g>
	<text x="395" y="216.3" fill="#000000" font-family="Copperplate" font-size="18">Order</text>
	<text x="373" y="242" fill="#000000" font-family="Gill Sans" font-size="15">orderId</text>
	<line x1="373" y1="245" x2="421" y2="245" stroke="#000000" stroke-width="1"/>
	<text x="373" y="259" fill="#000000" font-family="Gill Sans" font-size="15">totalAmount</text>
	<text x="373" y="276.1" fill="#000000" font-family="Gill Sans" font-size="15">totalExclTax</text>
	<text x="373" y="293.1" fill="#000000" font-family="Gill Sans" font-size="15">totalVatAmount</text>
	<text x="373" y="310.1" fill="#000000" font-family="Gill Sans" font-size="15">currency</text>
	<text x="373" y="327.1" fill="#000000" font-family="Gill Sans" font-size="15">contactEmail</text>
	<text x="373" y="344" fill="#000000" font-family="Gill Sans" font-size="15">invoiceNumber</text>
	<text x="373" y="361" fill="#000000" font-family="Gill Sans" font-size="15">invoiceDate</text>
	<text x="373" y="378" fill="#000000" font-family="Gill Sans" font-size="15">paymentStatus</text>
	<text x="373" y="395" fill="#000000" font-family="Gill Sans" font-size="15">orderStatus</text>
</g>

<!-- Entity ORDERADDRESS -->
<g>
	<g>
		<rect x="349" y="431" width="150" height="30" fill="#FFFFFF" stroke="none" stroke-width="0" opacity="1"/>
		<rect x="349" y="461" width="150" height="182" fill="#FFFFFF" stroke="none" stroke-width="0" opacity="1"/>
		<rect x="349" y="431" width="150" height="212" fill="none" stroke="#000000" stroke-width="1.5" opacity="1"/>
		<line x1="349" y1="461" x2="499" y2="461" stroke="#000000" stroke-width="1.5"/>
	</g>
	<text x="358" y="452.3" fill="#000000" font-family="Copperplate" font-size="18">OrderAddress</text>
	<text x="357" y="478" fill="#000000" font-family="Gill Sans" font-size="15">orderAddressId</text>
	<line x1="357" y1="481" x2="456" y2="481" stroke="#000000" stroke-width="1"/>
	<text x="357" y="495" fill="#000000" font-family="Gill Sans" font-size="15">type</text>
	<text x="357" y="512.1" fill="#000000" font-family="Gill Sans" font-size="15">firstName</text>
	<text x="357" y="529.1" fill="#000000" font-family="Gill Sans" font-size="15">lastName</text>
	<text x="357" y="546.1" fill="#000000" font-family="Gill Sans" font-size="15">street</text>
	<text x="357" y="563.1" fill="#000000" font-family="Gill Sans" font-size="15">streetLine2</text>
	<text x="357" y="580" fill="#000000" font-family="Gill Sans" font-size="15">postalCode</text>
	<text x="357" y="597" fill="#000000" font-family="Gill Sans" font-size="15">city</text>
	<text x="357" y="614" fill="#000000" font-family="Gill Sans" font-size="15">countryCode</text>
	<text x="357" y="631" fill="#000000" font-family="Gill Sans" font-size="15">phone</text>
</g>

<!-- Entity TREE -->
<g>
	<g>
		<rect x="9" y="607" width="138" height="30" fill="#FFFFFF" stroke="none" stroke-width="0" opacity="1"/>
		<rect x="9" y="637" width="138" height="166" fill="#FFFFFF" stroke="none" stroke-width="0" opacity="1"/>
		<rect x="9" y="607" width="138" height="196" fill="none" stroke="#000000" stroke-width="1.5" opacity="1"/>
		<line x1="9" y1="637" x2="147" y2="637" stroke="#000000" stroke-width="1.5"/>
	</g>
	<text x="57" y="628.3" fill="#000000" font-family="Copperplate" font-size="18">Tree</text>
	<text x="17" y="654" fill="#000000" font-family="Gill Sans" font-size="15">treeId</text>
	<line x1="17" y1="657" x2="55" y2="657" stroke="#000000" stroke-width="1"/>
	<text x="17" y="671" fill="#000000" font-family="Gill Sans" font-size="15">name</text>
	<text x="17" y="688.1" fill="#000000" font-family="Gill Sans" font-size="15">scientificName</text>
	<text x="17" y="705.1" fill="#000000" font-family="Gill Sans" font-size="15">description</text>
	<text x="17" y="722.1" fill="#000000" font-family="Gill Sans" font-size="15">imageUrl</text>
	<text x="17" y="739" fill="#000000" font-family="Gill Sans" font-size="15">price</text>
	<text x="17" y="756" fill="#000000" font-family="Gill Sans" font-size="15">heightMax</text>
	<text x="17" y="773" fill="#000000" font-family="Gill Sans" font-size="15">stockQuantity</text>
	<text x="17" y="790" fill="#000000" font-family="Gill Sans" font-size="15">lowStockThreshold</text>
</g>

<!-- Entity CATEGORY -->
<g>
	<g>
		<rect x="373" y="667" width="102" height="30" fill="#FFFFFF" stroke="none" stroke-width="0" opacity="1"/>
		<rect x="373" y="697" width="102" height="46" fill="#FFFFFF" stroke="none" stroke-width="0" opacity="1"/>
		<rect x="373" y="667" width="102" height="76" fill="none" stroke="#000000" stroke-width="1.5" opacity="1"/>
		<line x1="373" y1="697" x2="475" y2="697" stroke="#000000" stroke-width="1.5"/>
	</g>
	<text x="381" y="688.3" fill="#000000" font-family="Copperplate" font-size="18">Category</text>
	<text x="381" y="714.1" fill="#000000" font-family="Gill Sans" font-size="15">categoryId</text>
	<line x1="381" y1="717" x2="447" y2="717" stroke="#000000" stroke-width="1"/>
	<text x="381" y="731.1" fill="#000000" font-family="Gill Sans" font-size="15">name</text>
</g>

<!-- Entity LOCATION -->
<g>
	<g>
		<rect x="196" y="784" width="98" height="30" fill="#FFFFFF" stroke="none" stroke-width="0" opacity="1"/>
		<rect x="196" y="814" width="98" height="114" fill="#FFFFFF" stroke="none" stroke-width="0" opacity="1"/>
		<rect x="196" y="784" width="98" height="144" fill="none" stroke="#000000" stroke-width="1.5" opacity="1"/>
		<line x1="196" y1="814" x2="294" y2="814" stroke="#000000" stroke-width="1.5"/>
	</g>
	<text x="205" y="805.3" fill="#000000" font-family="Copperplate" font-size="18">Location</text>
	<text x="204" y="831.1" fill="#000000" font-family="Gill Sans" font-size="15">locationId</text>
	<line x1="204" y1="834" x2="266" y2="834" stroke="#000000" stroke-width="1"/>
	<text x="204" y="848.1" fill="#000000" font-family="Gill Sans" font-size="15">name</text>
	<text x="204" y="865.1" fill="#000000" font-family="Gill Sans" font-size="15">region</text>
	<text x="204" y="882.1" fill="#000000" font-family="Gill Sans" font-size="15">coordinates</text>
	<text x="204" y="899" fill="#000000" font-family="Gill Sans" font-size="15">description</text>
	<text x="204" y="916" fill="#000000" font-family="Gill Sans" font-size="15">imageUrl</text>
</g>

<!-- Entity COUNTRY -->
<g>
	<g>
		<rect x="518" y="784" width="130" height="30" fill="#FFFFFF" stroke="none" stroke-width="0" opacity="1"/>
		<rect x="518" y="814" width="130" height="114" fill="#FFFFFF" stroke="none" stroke-width="0" opacity="1"/>
		<rect x="518" y="784" width="130" height="144" fill="none" stroke="#000000" stroke-width="1.5" opacity="1"/>
		<line x1="518" y1="814" x2="648" y2="814" stroke="#000000" stroke-width="1.5"/>
	</g>
	<text x="544" y="805.3" fill="#000000" font-family="Copperplate" font-size="18">Country</text>
	<text x="526" y="831.1" fill="#000000" font-family="Gill Sans" font-size="15">countryId</text>
	<line x1="526" y1="834" x2="587" y2="834" stroke="#000000" stroke-width="1"/>
	<text x="526" y="848.1" fill="#000000" font-family="Gill Sans" font-size="15">code</text>
	<text x="526" y="865.1" fill="#000000" font-family="Gill Sans" font-size="15">name</text>
	<text x="526" y="882.1" fill="#000000" font-family="Gill Sans" font-size="15">currency</text>
	<text x="526" y="899" fill="#000000" font-family="Gill Sans" font-size="15">isBillingAvailable</text>
	<text x="526" y="916" fill="#000000" font-family="Gill Sans" font-size="15">isPlantingAvailable</text>
</g>
</svg>