<?xml version="1.0" encoding="utf-8"?>
<!-- Generated by Mocodo 4.3.2 -->
<svg width="673" height="601" viewBox="0 0 673 601" xmlns="http://www.w3.org/2000/svg">
<rect x="0" y="0" width="673" height="601" fill="#f7f7f7" stroke="none" stroke-width="0"/>

<!-- Association CONTAINS -->
<g>
	<line x1="194" y1="397" x2="326" y2="102" stroke="#4393c3" stroke-width="2"/>
	<line x1="461" y1="102" x2="326" y2="102" stroke="#4393c3" stroke-width="2"/>
	<g>
		<path d="M352 60 a14 14 90 0 1 14 14 V85 h-80 V74 a14 14 90 0 1 14 -14" fill="#92c5de" stroke="#92c5de" stroke-width="0"/>
		<path d="M366 85 v45 a14 14 90 0 1 -14 14 H300 a14 14 90 0 1 -14 -14 V85 H80" fill="#d1e5f0" stroke="#d1e5f0" stroke-width="0"/>
		<rect x="286" y="60" width="80" height="84" fill="none" rx="14" stroke="#4393c3" stroke-width="2"/>
		<line x1="286" y1="85" x2="366" y2="85" stroke="#4393c3" stroke-width="1"/>
		<text x="293" y="77.75" fill="#000000" font-family="Verdana" font-size="12">CONTAINS</text>
		<text x="293" y="102.8" fill="#000000" font-family="Verdana" font-size="12">quantity</text>
		<text x="293" y="119.8" fill="#000000" font-family="Verdana" font-size="12">unitPrice</text>
		<text x="293" y="136.8" fill="#000000" font-family="Verdana" font-size="12">vatRate</text>
	</g>
	<text x="216.15" y="287" fill="#b2182b" font-family="Verdana" font-size="12">1,N</text>
	<text x="372" y="119" fill="#b2182b" font-family="Verdana" font-size="12">0,N</text>
</g>

<!-- Association PLANTED_AT -->
<g>
	<line x1="461" y1="102" x2="602" y2="102" stroke="#4393c3" stroke-width="2"/>
	<line x1="602" y1="245" x2="602" y2="102" stroke="#4393c3" stroke-width="2"/>
	<g>
		<path d="M635 77 a14 14 90 0 1 14 14 V102 h-94 V91 a14 14 90 0 1 14 -14" fill="#92c5de" stroke="#92c5de" stroke-width="0"/>
		<path d="M649 102 v11 a14 14 90 0 1 -14 14 H569 a14 14 90 0 1 -14 -14 V102 H94" fill="#d1e5f0" stroke="#d1e5f0" stroke-width="0"/>
		<rect x="555" y="77" width="94" height="50" fill="none" rx="14" stroke="#4393c3" stroke-width="2"/>
		<line x1="555" y1="102" x2="649" y2="102" stroke="#4393c3" stroke-width="1"/>
		<text x="562" y="94.75" fill="#000000" font-family="Verdana" font-size="12">PLANTED_AT</text>
	</g>
	<text x="528" y="119" fill="#b2182b" font-family="Verdana" font-size="12">1,1</text>
	<text x="607" y="169" fill="#b2182b" font-family="Verdana" font-size="12">0,N</text>
</g>

<!-- Association HAS -->
<g>
	<line x1="59" y1="397" x2="59" y2="245" stroke="#4393c3" stroke-width="2"/>
	<line x1="59" y1="102" x2="59" y2="245" stroke="#4393c3" stroke-width="2"/>
	<g>
		<path d="M65 220 a14 14 90 0 1 14 14 V245 h-40 V234 a14 14 90 0 1 14 -14" fill="#92c5de" stroke="#92c5de" stroke-width="0"/>
		<path d="M79 245 v11 a14 14 90 0 1 -14 14 H53 a14 14 90 0 1 -14 -14 V245 H40" fill="#d1e5f0" stroke="#d1e5f0" stroke-width="0"/>
		<rect x="39" y="220" width="40" height="50" fill="none" rx="14" stroke="#4393c3" stroke-width="2"/>
		<line x1="39" y1="245" x2="79" y2="245" stroke="#4393c3" stroke-width="1"/>
		<text x="46" y="237.75" fill="#000000" font-family="Verdana" font-size="12">HAS</text>
	</g>
	<text x="33" y="313" fill="#b2182b" font-family="Verdana" font-size="12">1,1</text>
	<text x="64" y="153" fill="#b2182b" font-family="Verdana" font-size="12">0,N</text>
</g>

<!-- Association PLACES -->
<g>
	<line x1="59" y1="397" x2="194" y2="245" stroke="#4393c3" stroke-width="2"/>
	<line x1="194" y1="397" x2="194" y2="245" stroke="#4393c3" stroke-width="2"/>
	<g>
		<path d="M211 220 a14 14 90 0 1 14 14 V245 h-62 V234 a14 14 90 0 1 14 -14" fill="#92c5de" stroke="#92c5de" stroke-width="0"/>
		<path d="M225 245 v11 a14 14 90 0 1 -14 14 H177 a14 14 90 0 1 -14 -14 V245 H62" fill="#d1e5f0" stroke="#d1e5f0" stroke-width="0"/>
		<rect x="163" y="220" width="62" height="50" fill="none" rx="14" stroke="#4393c3" stroke-width="2"/>
		<line x1="163" y1="245" x2="225" y2="245" stroke="#4393c3" stroke-width="1"/>
		<text x="171" y="237.75" fill="#000000" font-family="Verdana" font-size="12">PLACES</text>
	</g>
	<text x="114" y="351.22" fill="#b2182b" font-family="Verdana" font-size="12">0,N</text>
	<text x="168" y="287" fill="#b2182b" font-family="Verdana" font-size="12">1,1</text>
</g>

<!-- Association HAS_ADDRESS -->
<g>
	<line x1="194" y1="397" x2="326" y2="245" stroke="#4393c3" stroke-width="2"/>
	<line x1="326" y1="397" x2="326" y2="245" stroke="#4393c3" stroke-width="2"/>
	<g>
		<path d="M366 220 a14 14 90 0 1 14 14 V245 h-108 V234 a14 14 90 0 1 14 -14" fill="#92c5de" stroke="#92c5de" stroke-width="0"/>
		<path d="M380 245 v11 a14 14 90 0 1 -14 14 H286 a14 14 90 0 1 -14 -14 V245 H108" fill="#d1e5f0" stroke="#d1e5f0" stroke-width="0"/>
		<rect x="272" y="220" width="108" height="50" fill="none" rx="14" stroke="#4393c3" stroke-width="2"/>
		<line x1="272" y1="245" x2="380" y2="245" stroke="#4393c3" stroke-width="1"/>
		<text x="280" y="237.75" fill="#000000" font-family="Verdana" font-size="12">HAS_ADDRESS</text>
	</g>
	<text x="252" y="346.6" fill="#b2182b" font-family="Verdana" font-size="12">1,N</text>
	<text x="331" y="287" fill="#b2182b" font-family="Verdana" font-size="12">1,1</text>
</g>

<!-- Association BELONGS_TO -->
<g>
	<line x1="461" y1="102" x2="461" y2="245" stroke="#4393c3" stroke-width="2"/>
	<line x1="461" y1="397" x2="461" y2="245" stroke="#4393c3" stroke-width="2"/>
	<g>
		<path d="M496 220 a14 14 90 0 1 14 14 V245 h-98 V234 a14 14 90 0 1 14 -14" fill="#92c5de" stroke="#92c5de" stroke-width="0"/>
		<path d="M510 245 v11 a14 14 90 0 1 -14 14 H426 a14 14 90 0 1 -14 -14 V245 H98" fill="#d1e5f0" stroke="#d1e5f0" stroke-width="0"/>
		<rect x="412" y="220" width="98" height="50" fill="none" rx="14" stroke="#4393c3" stroke-width="2"/>
		<line x1="412" y1="245" x2="510" y2="245" stroke="#4393c3" stroke-width="1"/>
		<text x="419" y="237.75" fill="#000000" font-family="Verdana" font-size="12">BELONGS_TO</text>
	</g>
	<text x="466" y="212" fill="#b2182b" font-family="Verdana" font-size="12">1,1</text>
	<text x="466" y="355" fill="#b2182b" font-family="Verdana" font-size="12">0,N</text>
</g>

<!-- Association LOCATED_IN -->
<g>
	<line x1="602" y1="245" x2="602" y2="397" stroke="#4393c3" stroke-width="2"/>
	<line x1="602" y1="524" x2="602" y2="397" stroke="#4393c3" stroke-width="2"/>
	<g>
		<path d="M635 372 a14 14 90 0 1 14 14 V397 h-94 V386 a14 14 90 0 1 14 -14" fill="#92c5de" stroke="#92c5de" stroke-width="0"/>
		<path d="M649 397 v11 a14 14 90 0 1 -14 14 H569 a14 14 90 0 1 -14 -14 V397 H94" fill="#d1e5f0" stroke="#d1e5f0" stroke-width="0"/>
		<rect x="555" y="372" width="94" height="50" fill="none" rx="14" stroke="#4393c3" stroke-width="2"/>
		<line x1="555" y1="397" x2="649" y2="397" stroke="#4393c3" stroke-width="1"/>
		<text x="562" y="389.75" fill="#000000" font-family="Verdana" font-size="12">LOCATED_IN</text>
	</g>
	<text x="607" y="330" fill="#b2182b" font-family="Verdana" font-size="12">1,1</text>
	<text x="607" y="448" fill="#b2182b" font-family="Verdana" font-size="12">0,N</text>
</g>

<!-- Entity ROLE -->
<g>
	<g>
		<rect x="36" y="68" width="46" height="25" fill="#f4a582" stroke="none" stroke-width="0" opacity="1"/>
		<rect x="36" y="93" width="46" height="43" fill="#fddbc7" stroke="none" stroke-width="0" opacity="1"/>
		<rect x="36" y="68" width="46" height="68" fill="none" stroke="#d6604d" stroke-width="2" opacity="1"/>
		<line x1="36" y1="93" x2="82" y2="93" stroke="#d6604d" stroke-width="1"/>
	</g>
	<text x="46" y="85.75" fill="#000000" font-family="Verdana" font-size="12">Role</text>
	<text x="41" y="110.8" fill="#000000" font-family="Verdana" font-size="12">id</text>
	<line x1="41" y1="113" x2="53" y2="113" stroke="#000000" stroke-width="1"/>
	<text x="41" y="127.8" fill="#000000" font-family="Verdana" font-size="12">name</text>
</g>

<!-- Entity TREE -->
<g>
	<g>
		<rect x="399" y="9" width="124" height="25" fill="#f4a582" stroke="none" stroke-width="0" opacity="1"/>
		<rect x="399" y="34" width="124" height="161" fill="#fddbc7" stroke="none" stroke-width="0" opacity="1"/>
		<rect x="399" y="9" width="124" height="186" fill="none" stroke="#d6604d" stroke-width="2" opacity="1"/>
		<line x1="399" y1="34" x2="523" y2="34" stroke="#d6604d" stroke-width="1"/>
	</g>
	<text x="447" y="26.75" fill="#000000" font-family="Verdana" font-size="12">Tree</text>
	<text x="404" y="51.8" fill="#000000" font-family="Verdana" font-size="12">id</text>
	<line x1="404" y1="54" x2="416" y2="54" stroke="#000000" stroke-width="1"/>
	<text x="404" y="68.8" fill="#000000" font-family="Verdana" font-size="12">name</text>
	<text x="404" y="85.8" fill="#000000" font-family="Verdana" font-size="12">scientificName</text>
	<text x="404" y="102.8" fill="#000000" font-family="Verdana" font-size="12">description</text>
	<text x="404" y="119.8" fill="#000000" font-family="Verdana" font-size="12">imageUrl</text>
	<text x="404" y="136.8" fill="#000000" font-family="Verdana" font-size="12">price</text>
	<text x="404" y="153.8" fill="#000000" font-family="Verdana" font-size="12">heightMax</text>
	<text x="404" y="170.8" fill="#000000" font-family="Verdana" font-size="12">stockQuantity</text>
	<text x="404" y="187.8" fill="#000000" font-family="Verdana" font-size="12">lowStockThreshold</text>
</g>

<!-- Entity LOCATION -->
<g>
	<g>
		<rect x="561" y="177" width="82" height="25" fill="#f4a582" stroke="none" stroke-width="0" opacity="1"/>
		<rect x="561" y="202" width="82" height="111" fill="#fddbc7" stroke="none" stroke-width="0" opacity="1"/>
		<rect x="561" y="177" width="82" height="136" fill="none" stroke="#d6604d" stroke-width="2" opacity="1"/>
		<line x1="561" y1="202" x2="643" y2="202" stroke="#d6604d" stroke-width="1"/>
	</g>
	<text x="577" y="194.75" fill="#000000" font-family="Verdana" font-size="12">Location</text>
	<text x="566" y="219.8" fill="#000000" font-family="Verdana" font-size="12">id</text>
	<line x1="566" y1="222" x2="578" y2="222" stroke="#000000" stroke-width="1"/>
	<text x="566" y="236.8" fill="#000000" font-family="Verdana" font-size="12">name</text>
	<text x="566" y="253.8" fill="#000000" font-family="Verdana" font-size="12">region</text>
	<text x="566" y="270.8" fill="#000000" font-family="Verdana" font-size="12">coordinates</text>
	<text x="566" y="287.8" fill="#000000" font-family="Verdana" font-size="12">description</text>
	<text x="566" y="304.8" fill="#000000" font-family="Verdana" font-size="12">imageUrl</text>
</g>

<!-- Entity USER -->
<g>
	<g>
		<rect x="9" y="321" width="100" height="25" fill="#f4a582" stroke="none" stroke-width="0" opacity="1"/>
		<rect x="9" y="346" width="100" height="127" fill="#fddbc7" stroke="none" stroke-width="0" opacity="1"/>
		<rect x="9" y="321" width="100" height="152" fill="none" stroke="#d6604d" stroke-width="2" opacity="1"/>
		<line x1="9" y1="346" x2="109" y2="346" stroke="#d6604d" stroke-width="1"/>
	</g>
	<text x="45" y="338.75" fill="#000000" font-family="Verdana" font-size="12">User</text>
	<text x="14" y="363.8" fill="#000000" font-family="Verdana" font-size="12">id</text>
	<line x1="14" y1="366" x2="26" y2="366" stroke="#000000" stroke-width="1"/>
	<text x="14" y="380.8" fill="#000000" font-family="Verdana" font-size="12">email</text>
	<text x="14" y="397.8" fill="#000000" font-family="Verdana" font-size="12">password</text>
	<text x="14" y="414.8" fill="#000000" font-family="Verdana" font-size="12">firstName</text>
	<text x="14" y="431.8" fill="#000000" font-family="Verdana" font-size="12">lastName</text>
	<text x="14" y="448.8" fill="#000000" font-family="Verdana" font-size="12">avatarUrl</text>
	<text x="14" y="465.8" fill="#000000" font-family="Verdana" font-size="12">isEmailVerified</text>
</g>

<!-- Entity ORDER -->
<g>
	<g>
		<rect x="141" y="295" width="106" height="25" fill="#f4a582" stroke="none" stroke-width="0" opacity="1"/>
		<rect x="141" y="320" width="106" height="179" fill="#fddbc7" stroke="none" stroke-width="0" opacity="1"/>
		<rect x="141" y="295" width="106" height="204" fill="none" stroke="#d6604d" stroke-width="2" opacity="1"/>
		<line x1="141" y1="320" x2="247" y2="320" stroke="#d6604d" stroke-width="1"/>
	</g>
	<text x="177" y="312.75" fill="#000000" font-family="Verdana" font-size="12">Order</text>
	<text x="146" y="337.8" fill="#000000" font-family="Verdana" font-size="12">id</text>
	<line x1="146" y1="340" x2="158" y2="340" stroke="#000000" stroke-width="1"/>
	<text x="146" y="354.8" fill="#000000" font-family="Verdana" font-size="12">totalAmount</text>
	<text x="146" y="371.8" fill="#000000" font-family="Verdana" font-size="12">totalExclTax</text>
	<text x="146" y="388.8" fill="#000000" font-family="Verdana" font-size="12">totalVatAmount</text>
	<text x="146" y="405.8" fill="#000000" font-family="Verdana" font-size="12">currency</text>
	<text x="146" y="422.8" fill="#000000" font-family="Verdana" font-size="12">contactEmail</text>
	<text x="146" y="439.8" fill="#000000" font-family="Verdana" font-size="12">invoiceNumber</text>
	<text x="146" y="456.8" fill="#000000" font-family="Verdana" font-size="12">invoiceDate</text>
	<text x="146" y="473.8" fill="#000000" font-family="Verdana" font-size="12">paymentStatus</text>
	<text x="146" y="490.8" fill="#000000" font-family="Verdana" font-size="12">orderStatus</text>
</g>

<!-- Entity ORDERADDRESS -->
<g>
	<g>
		<rect x="279" y="295" width="94" height="25" fill="#f4a582" stroke="none" stroke-width="0" opacity="1"/>
		<rect x="279" y="320" width="94" height="179" fill="#fddbc7" stroke="none" stroke-width="0" opacity="1"/>
		<rect x="279" y="295" width="94" height="204" fill="none" stroke="#d6604d" stroke-width="2" opacity="1"/>
		<line x1="279" y1="320" x2="373" y2="320" stroke="#d6604d" stroke-width="1"/>
	</g>
	<text x="285" y="312.75" fill="#000000" font-family="Verdana" font-size="12">OrderAddress</text>
	<text x="284" y="337.8" fill="#000000" font-family="Verdana" font-size="12">id</text>
	<line x1="284" y1="340" x2="296" y2="340" stroke="#000000" stroke-width="1"/>
	<text x="284" y="354.8" fill="#000000" font-family="Verdana" font-size="12">type</text>
	<text x="284" y="371.8" fill="#000000" font-family="Verdana" font-size="12">firstName</text>
	<text x="284" y="388.8" fill="#000000" font-family="Verdana" font-size="12">lastName</text>
	<text x="284" y="405.8" fill="#000000" font-family="Verdana" font-size="12">street</text>
	<text x="284" y="422.8" fill="#000000" font-family="Verdana" font-size="12">streetLine2</text>
	<text x="284" y="439.8" fill="#000000" font-family="Verdana" font-size="12">postalCode</text>
	<text x="284" y="456.8" fill="#000000" font-family="Verdana" font-size="12">city</text>
	<text x="284" y="473.8" fill="#000000" font-family="Verdana" font-size="12">countryCode</text>
	<text x="284" y="490.8" fill="#000000" font-family="Verdana" font-size="12">phone</text>
</g>

<!-- Entity CATEGORY -->
<g>
	<g>
		<rect x="428" y="363" width="66" height="25" fill="#f4a582" stroke="none" stroke-width="0" opacity="1"/>
		<rect x="428" y="388" width="66" height="43" fill="#fddbc7" stroke="none" stroke-width="0" opacity="1"/>
		<rect x="428" y="363" width="66" height="68" fill="none" stroke="#d6604d" stroke-width="2" opacity="1"/>
		<line x1="428" y1="388" x2="494" y2="388" stroke="#d6604d" stroke-width="1"/>
	</g>
	<text x="433" y="380.75" fill="#000000" font-family="Verdana" font-size="12">Category</text>
	<text x="433" y="405.8" fill="#000000" font-family="Verdana" font-size="12">id</text>
	<line x1="433" y1="408" x2="445" y2="408" stroke="#000000" stroke-width="1"/>
	<text x="433" y="422.8" fill="#000000" font-family="Verdana" font-size="12">name</text>
</g>

<!-- Entity COUNTRY -->
<g>
	<g>
		<rect x="540" y="456" width="124" height="25" fill="#f4a582" stroke="none" stroke-width="0" opacity="1"/>
		<rect x="540" y="481" width="124" height="111" fill="#fddbc7" stroke="none" stroke-width="0" opacity="1"/>
		<rect x="540" y="456" width="124" height="136" fill="none" stroke="#d6604d" stroke-width="2" opacity="1"/>
		<line x1="540" y1="481" x2="664" y2="481" stroke="#d6604d" stroke-width="1"/>
	</g>
	<text x="578" y="473.75" fill="#000000" font-family="Verdana" font-size="12">Country</text>
	<text x="545" y="498.8" fill="#000000" font-family="Verdana" font-size="12">id</text>
	<line x1="545" y1="501" x2="557" y2="501" stroke="#000000" stroke-width="1"/>
	<text x="545" y="515.8" fill="#000000" font-family="Verdana" font-size="12">code</text>
	<text x="545" y="532.8" fill="#000000" font-family="Verdana" font-size="12">name</text>
	<text x="545" y="549.8" fill="#000000" font-family="Verdana" font-size="12">currency</text>
	<text x="545" y="566.8" fill="#000000" font-family="Verdana" font-size="12">isBillingAvailable</text>
	<text x="545" y="583.8" fill="#000000" font-family="Verdana" font-size="12">isPlantingAvailable</text>
</g>
</svg>