<svg xmlns="http://www.w3.org/2000/svg" xmlns:xlink="http://www.w3.org/1999/xlink" contentStyleType="text/css" data-diagram-type="DESCRIPTION" height="1294px" preserveAspectRatio="none" style="width:946px;height:1294px;background:#FFFFFF;" version="1.1" viewBox="0 0 946 1294" width="946px" zoomAndPan="magnify"><?plantuml 1.2026.6?><defs/><g><!--cluster GreenRoots--><g class="cluster" data-qualified-name="GreenRoots" data-source-line="13" id="ent0006"><rect fill="none" height="1259" rx="2.5" ry="2.5" style="stroke:#181818;stroke-width:1;" width="578.35" x="353.9" y="7"/><text fill="#000000" font-family="sans-serif" font-size="14" font-weight="700" lengthAdjust="spacing" textLength="83.5352" x="601.3074" y="22.5352">GreenRoots</text></g><!--cluster Fonctionnalites publiques--><g class="cluster" data-qualified-name="GreenRoots.Fonctionnalites publiques" data-source-line="15" id="ent0007"><rect fill="none" height="452" rx="2.5" ry="2.5" style="stroke:#181818;stroke-width:1;" width="213.63" x="388.45" y="50"/><text fill="#000000" font-family="sans-serif" font-size="14" font-weight="700" lengthAdjust="spacing" textLength="186.3682" x="402.0809" y="65.5352">Fonctionnalites publiques</text></g><!--cluster Fonctionnalites utilisateur--><g class="cluster" data-qualified-name="GreenRoots.Fonctionnalites utilisateur" data-source-line="24" id="ent0014"><rect fill="none" height="385" rx="2.5" ry="2.5" style="stroke:#181818;stroke-width:1;" width="513.37" x="377.9" y="526"/><text fill="#000000" font-family="sans-serif" font-size="14" font-weight="700" lengthAdjust="spacing" textLength="189.0342" x="540.0679" y="541.5352">Fonctionnalites utilisateur</text></g><!--cluster Fonctionnalites admin--><g class="cluster" data-qualified-name="GreenRoots.Fonctionnalites admin" data-source-line="34" id="ent0022"><rect fill="none" height="307" rx="2.5" ry="2.5" style="stroke:#181818;stroke-width:1;" width="517.24" x="391.01" y="935"/><text fill="#000000" font-family="sans-serif" font-size="14" font-weight="700" lengthAdjust="spacing" textLength="159.7559" x="569.7521" y="950.5352">Fonctionnalites admin</text></g><!--entity UC1--><g class="entity" data-qualified-name="GreenRoots.Fonctionnalites publiques.UC1" data-source-line="16" id="ent0008"><ellipse cx="495.2617" cy="104.9963" fill="#F1F1F1" rx="89.4817" ry="20.2963" style="stroke:#181818;stroke-width:0.5;"/><text fill="#000000" font-family="sans-serif" font-size="14" lengthAdjust="spacing" textLength="152.0518" x="419.2358" y="109.7405">Consulter le catalogue</text></g><!--entity UC2--><g class="entity" data-qualified-name="GreenRoots.Fonctionnalites publiques.UC2" data-source-line="17" id="ent0009"><ellipse cx="495.2627" cy="181.0025" fill="#F1F1F1" rx="90.8127" ry="20.5625" style="stroke:#181818;stroke-width:0.5;"/><text fill="#000000" font-family="sans-serif" font-size="14" lengthAdjust="spacing" textLength="155.0732" x="417.7261" y="185.7467">Voir la fiche d'un arbre</text></g><!--entity UC3--><g class="entity" data-qualified-name="GreenRoots.Fonctionnalites publiques.UC3" data-source-line="18" id="ent0010"><ellipse cx="495.2555" cy="253.9991" fill="#F1F1F1" rx="73.0455" ry="17.0091" style="stroke:#181818;stroke-width:0.5;"/><text fill="#000000" font-family="sans-serif" font-size="14" lengthAdjust="spacing" textLength="113.2646" x="438.6231" y="258.7432">Gerer son panier</text></g><!--entity UC4--><g class="entity" data-qualified-name="GreenRoots.Fonctionnalites publiques.UC4" data-source-line="19" id="ent0011"><ellipse cx="495.2591" cy="320.999" fill="#F1F1F1" rx="46.1991" ry="14.659" style="stroke:#181818;stroke-width:0.5;"/><text fill="#000000" font-family="sans-serif" font-size="14" lengthAdjust="spacing" textLength="61.0928" x="464.7127" y="325.7431">S'inscrire</text></g><!--entity UC5--><g class="entity" data-qualified-name="GreenRoots.Fonctionnalites publiques.UC5" data-source-line="20" id="ent0012"><ellipse cx="495.2622" cy="386.0004" fill="#F1F1F1" rx="62.8022" ry="14.9604" style="stroke:#181818;stroke-width:0.5;"/><text fill="#000000" font-family="sans-serif" font-size="14" lengthAdjust="spacing" textLength="86.6523" x="451.936" y="390.7446">Se connecter</text></g><!--entity UC6--><g class="entity" data-qualified-name="GreenRoots.Fonctionnalites publiques.UC6" data-source-line="21" id="ent0013"><ellipse cx="495.255" cy="460.9959" fill="#F1F1F1" rx="76.685" ry="25.4859" style="stroke:#181818;stroke-width:0.5;"/><text fill="#000000" font-family="sans-serif" font-size="14" lengthAdjust="spacing" textLength="108.0625" x="441.2238" y="458.6952">Reinitialiser son</text><text fill="#000000" font-family="sans-serif" font-size="14" lengthAdjust="spacing" textLength="90.9932" x="449.7584" y="475.1835">mot de passe</text></g><!--entity UC7--><g class="entity" data-qualified-name="GreenRoots.Fonctionnalites utilisateur.UC7" data-source-line="25" id="ent0015"><ellipse cx="495.2585" cy="578.9977" fill="#F1F1F1" rx="76.8885" ry="17.7777" style="stroke:#181818;stroke-width:0.5;"/><text fill="#000000" font-family="sans-serif" font-size="14" lengthAdjust="spacing" textLength="122.6436" x="433.9367" y="583.7418">Passer commande</text></g><!--entity UC16--><g class="entity" data-qualified-name="GreenRoots.Fonctionnalites utilisateur.UC16" data-source-line="26" id="ent0016"><ellipse cx="804.9437" cy="645.9967" fill="#F1F1F1" rx="70.3337" ry="16.4667" style="stroke:#181818;stroke-width:0.5;"/><text fill="#000000" font-family="sans-serif" font-size="14" lengthAdjust="spacing" textLength="106.4834" x="751.702" y="650.7409">Verifier le stock</text></g><!--entity UC17--><g class="entity" data-qualified-name="GreenRoots.Fonctionnalites utilisateur.UC17" data-source-line="27" id="ent0017"><ellipse cx="804.9355" cy="578.0011" fill="#F1F1F1" rx="69.1055" ry="16.2211" style="stroke:#181818;stroke-width:0.5;"/><text fill="#000000" font-family="sans-serif" font-size="14" lengthAdjust="spacing" textLength="103.3594" x="753.2558" y="582.7452">Payer via Stripe</text></g><!--entity UC8--><g class="entity" data-qualified-name="GreenRoots.Fonctionnalites utilisateur.UC8" data-source-line="28" id="ent0018"><ellipse cx="495.2551" cy="654.003" fill="#F1F1F1" rx="101.3651" ry="22.673" style="stroke:#181818;stroke-width:0.5;"/><text fill="#000000" font-family="sans-serif" font-size="14" lengthAdjust="spacing" textLength="178.623" x="405.9436" y="658.7472">Consulter ses commandes</text></g><!--entity UC9--><g class="entity" data-qualified-name="GreenRoots.Fonctionnalites utilisateur.UC9" data-source-line="29" id="ent0019"><ellipse cx="495.2643" cy="728.0049" fill="#F1F1F1" rx="70.4743" ry="16.4949" style="stroke:#181818;stroke-width:0.5;"/><text fill="#000000" font-family="sans-serif" font-size="14" lengthAdjust="spacing" textLength="106.8389" x="441.8449" y="732.749">Gerer son profil</text></g><!--entity UC10--><g class="entity" data-qualified-name="GreenRoots.Fonctionnalites utilisateur.UC10" data-source-line="30" id="ent0020"><ellipse cx="495.2567" cy="799.9953" fill="#F1F1F1" rx="90.4267" ry="20.4853" style="stroke:#181818;stroke-width:0.5;"/><text fill="#000000" font-family="sans-serif" font-size="14" lengthAdjust="spacing" textLength="154.1982" x="418.1575" y="804.7395">Supprimer son compte</text></g><!--entity UC11--><g class="entity" data-qualified-name="GreenRoots.Fonctionnalites utilisateur.UC11" data-source-line="31" id="ent0021"><ellipse cx="495.2571" cy="875.0034" fill="#F1F1F1" rx="87.0671" ry="19.8134" style="stroke:#181818;stroke-width:0.5;"/><text fill="#000000" font-family="sans-serif" font-size="14" lengthAdjust="spacing" textLength="146.5352" x="421.9896" y="879.7476">Exporter ses donnees</text></g><!--entity UC12--><g class="entity" data-qualified-name="GreenRoots.Fonctionnalites admin.UC12" data-source-line="35" id="ent0023"><ellipse cx="495.2562" cy="1062.0032" fill="#F1F1F1" rx="70.9162" ry="16.5832" style="stroke:#181818;stroke-width:0.5;"/><text fill="#000000" font-family="sans-serif" font-size="14" lengthAdjust="spacing" textLength="107.9531" x="441.2797" y="1066.7474">Gerer les arbres</text></g><!--entity UC13--><g class="entity" data-qualified-name="GreenRoots.Fonctionnalites admin.UC13" data-source-line="36" id="ent0024"><ellipse cx="495.2594" cy="1131.9979" fill="#F1F1F1" rx="82.0894" ry="18.8179" style="stroke:#181818;stroke-width:0.5;"/><text fill="#000000" font-family="sans-serif" font-size="14" lengthAdjust="spacing" textLength="134.9961" x="427.7614" y="1136.742">Gerer les categories</text></g><!--entity UC14--><g class="entity" data-qualified-name="GreenRoots.Fonctionnalites admin.UC14" data-source-line="37" id="ent0025"><ellipse cx="495.2564" cy="1205.9993" fill="#F1F1F1" rx="88.2464" ry="20.0493" style="stroke:#181818;stroke-width:0.5;"/><text fill="#000000" font-family="sans-serif" font-size="14" lengthAdjust="spacing" textLength="149.2354" x="420.6387" y="1210.7434">Gerer les localisations</text></g><!--entity UC15--><g class="entity" data-qualified-name="GreenRoots.Fonctionnalites admin.UC15" data-source-line="38" id="ent0026"><ellipse cx="804.9415" cy="1149.0023" fill="#F1F1F1" rx="87.3115" ry="19.8623" style="stroke:#181818;stroke-width:0.5;"/><text fill="#000000" font-family="sans-serif" font-size="14" lengthAdjust="spacing" textLength="147.0957" x="731.3937" y="1153.7464">Gerer les commandes</text></g><!--entity UC18--><g class="entity" data-qualified-name="GreenRoots.Fonctionnalites admin.UC18" data-source-line="39" id="ent0027"><ellipse cx="495.2583" cy="990.0017" fill="#F1F1F1" rx="88.2583" ry="20.0517" style="stroke:#181818;stroke-width:0.5;"/><text fill="#000000" font-family="sans-serif" font-size="14" lengthAdjust="spacing" textLength="149.2627" x="420.627" y="994.7458">Rembourser via Stripe</text></g><!--entity V--><g class="entity" data-qualified-name="V" data-source-line="6" id="ent0001"><ellipse cx="279.4" cy="298.76" fill="#F1F1F1" rx="16" ry="16" style="stroke:#181818;stroke-width:0.5;"/><path d="M279.4,318.76 C283.4,318.76 286.4,318.76 290.4,314.76 C298.4,314.76 306.4,322.76 306.4,330.76 L306.4,334.76 C306.4,338.76 302.4,342.76 298.4,342.76 L260.4,342.76 C256.4,342.76 252.4,338.76 252.4,334.76 L252.4,330.76 C252.4,322.76 260.4,314.76 268.4,314.76 C272.4,318.76 275.4,318.76 279.4,318.76" fill="#F1F1F1" style="stroke:#181818;stroke-width:0.5;"/><text fill="#000000" font-family="sans-serif" font-size="14" lengthAdjust="spacing" textLength="51.8369" x="253.4815" y="356.7952">Visiteur</text></g><!--entity U--><g class="entity" data-qualified-name="U" data-source-line="7" id="ent0002"><ellipse cx="156.1992" cy="705.76" fill="#F1F1F1" rx="16" ry="16" style="stroke:#181818;stroke-width:0.5;"/><path d="M156.1992,725.76 C160.1992,725.76 163.1992,725.76 167.1992,721.76 C175.1992,721.76 183.1992,729.76 183.1992,737.76 L183.1992,741.76 C183.1992,745.76 179.1992,749.76 175.1992,749.76 L137.1992,749.76 C133.1992,749.76 129.1992,745.76 129.1992,741.76 L129.1992,737.76 C129.1992,729.76 137.1992,721.76 145.1992,721.76 C149.1992,725.76 152.1992,725.76 156.1992,725.76" fill="#F1F1F1" style="stroke:#181818;stroke-width:0.5;"/><text fill="#000000" font-family="sans-serif" font-size="14" lengthAdjust="spacing" textLength="69.3984" x="121.5" y="763.7952">Utilisateur</text></g><!--entity A--><g class="entity" data-qualified-name="A" data-source-line="8" id="ent0003"><ellipse cx="33" cy="1110.76" fill="#F1F1F1" rx="16" ry="16" style="stroke:#181818;stroke-width:0.5;"/><path d="M33,1130.76 C37,1130.76 40,1130.76 44,1126.76 C52,1126.76 60,1134.76 60,1142.76 L60,1146.76 C60,1150.76 56,1154.76 52,1154.76 L14,1154.76 C10,1154.76 6,1150.76 6,1146.76 L6,1142.76 C6,1134.76 14,1126.76 22,1126.76 C26,1130.76 29,1130.76 33,1130.76" fill="#F1F1F1" style="stroke:#181818;stroke-width:0.5;"/><text fill="#000000" font-family="sans-serif" font-size="14" lengthAdjust="spacing" textLength="44.2764" x="10.8618" y="1168.7952">Admin</text></g><!--link U to V--><g class="link" data-entity-1="ent0002" data-entity-2="ent0001" data-link-type="extension" data-source-line="10" id="lnk4"><path d="M168.82,688.98 C191.96,611.28 238.4027,455.3013 261.5827,377.4613" fill="none" id="U-to-V" style="stroke:#181818;stroke-width:1;"/><polygon fill="none" points="266.72,360.21,255.8323,375.7489,267.3332,379.1738,266.72,360.21" style="stroke:#181818;stroke-width:1;stroke-linejoin:miter;stroke-miterlimit:10;"/></g><!--link A to U--><g class="link" data-entity-1="ent0003" data-entity-2="ent0002" data-link-type="extension" data-source-line="11" id="lnk5"><path d="M45.73,1093.8 C68.9,1016.38 115.1304,861.9047 138.3004,784.4647" fill="none" id="A-to-U" style="stroke:#181818;stroke-width:1;"/><polygon fill="none" points="143.46,767.22,132.5522,782.7448,144.0486,786.1845,143.46,767.22" style="stroke:#181818;stroke-width:1;stroke-linejoin:miter;stroke-miterlimit:10;"/></g><!--link V to UC1--><g class="link" data-entity-1="ent0001" data-entity-2="ent0008" data-link-type="association" data-source-line="43" id="lnk28"><path d="M284.28,281.84 C290.4,241.3 306.06,178.97 345.9,143 C363.76,126.87 387.53,117.4 410.81,111.89" fill="none" id="V-UC1" style="stroke:#181818;stroke-width:1;"/></g><!--link V to UC2--><g class="link" data-entity-1="ent0001" data-entity-2="ent0009" data-link-type="association" data-source-line="44" id="lnk29"><path d="M296.77,281.83 C307.68,260.27 324.06,234.77 345.9,219 C365.62,204.76 390.2,195.84 413.64,190.27" fill="none" id="V-UC2" style="stroke:#181818;stroke-width:1;"/></g><!--link V to UC3--><g class="link" data-entity-1="ent0001" data-entity-2="ent0010" data-link-type="association" data-source-line="45" id="lnk30"><path d="M307.22,306.22 C318.85,300.25 332.79,293.68 345.9,289 C375.18,278.54 408.84,270.31 436.69,264.46" fill="none" id="V-UC3" style="stroke:#181818;stroke-width:1;"/></g><!--link V to UC4--><g class="link" data-entity-1="ent0001" data-entity-2="ent0011" data-link-type="association" data-source-line="46" id="lnk31"><path d="M307.05,321 C342.55,321 405.85,321 448.93,321" fill="none" id="V-UC4" style="stroke:#181818;stroke-width:1;"/></g><!--link V to UC5--><g class="link" data-entity-1="ent0001" data-entity-2="ent0012" data-link-type="association" data-source-line="47" id="lnk32"><path d="M307.19,335.87 C318.82,341.85 332.76,348.4 345.9,353 C377.16,363.94 413.42,372.08 442.28,377.54" fill="none" id="V-UC5" style="stroke:#181818;stroke-width:1;"/></g><!--link V to UC6--><g class="link" data-entity-1="ent0001" data-entity-2="ent0013" data-link-type="association" data-source-line="48" id="lnk33"><path d="M298.44,359.94 C309.53,379.94 325.53,403.17 345.9,418 C368.66,434.58 397.71,444.79 424.06,451.07" fill="none" id="V-UC6" style="stroke:#181818;stroke-width:1;"/></g><!--link U to UC7--><g class="link" data-entity-1="ent0002" data-entity-2="ent0015" data-link-type="association" data-source-line="50" id="lnk34"><path d="M191.17,697.92 C200.5,690.33 210.82,682.5 220.9,676 C273.02,642.4 287.56,635.03 345.9,614 C374.16,603.81 406.52,595.78 433.8,589.99" fill="none" id="U-UC7" style="stroke:#181818;stroke-width:1;"/></g><!--link U to UC8--><g class="link" data-entity-1="ent0002" data-entity-2="ent0018" data-link-type="association" data-source-line="51" id="lnk35"><path d="M191.1,712.6 C200.6,708.71 211.03,704.85 220.9,702 C281.32,684.58 351.18,672.45 405.15,664.74" fill="none" id="U-UC8" style="stroke:#181818;stroke-width:1;"/></g><!--link U to UC9--><g class="link" data-entity-1="ent0002" data-entity-2="ent0019" data-link-type="association" data-source-line="52" id="lnk36"><path d="M191.37,728 C245.77,728 353.15,728 424.33,728" fill="none" id="U-UC9" style="stroke:#181818;stroke-width:1;"/></g><!--link U to UC10--><g class="link" data-entity-1="ent0002" data-entity-2="ent0020" data-link-type="association" data-source-line="53" id="lnk37"><path d="M191.37,735.3 C246.77,747.13 357.13,770.71 428.24,785.9" fill="none" id="U-UC10" style="stroke:#181818;stroke-width:1;"/></g><!--link U to UC11--><g class="link" data-entity-1="ent0002" data-entity-2="ent0021" data-link-type="association" data-source-line="54" id="lnk38"><path d="M191.14,751.79 C227.79,776.49 288.64,814.72 345.9,838 C371.6,848.45 401.04,856.53 426.88,862.44" fill="none" id="U-UC11" style="stroke:#181818;stroke-width:1;"/></g><!--link A to UC12--><g class="link" data-entity-1="ent0003" data-entity-2="ent0023" data-link-type="association" data-source-line="56" id="lnk39"><path d="M60.92,1118.48 C70.07,1114.13 80.51,1109.78 90.5,1107 C204.49,1075.31 342.46,1065.83 424.04,1063.06" fill="none" id="A-UC12" style="stroke:#181818;stroke-width:1;"/></g><!--link A to UC13--><g class="link" data-entity-1="ent0003" data-entity-2="ent0024" data-link-type="association" data-source-line="57" id="lnk40"><path d="M60.74,1132.94 C128.17,1132.8 307.34,1132.41 413.05,1132.18" fill="none" id="A-UC13" style="stroke:#181818;stroke-width:1;"/></g><!--link A to UC14--><g class="link" data-entity-1="ent0003" data-entity-2="ent0025" data-link-type="association" data-source-line="58" id="lnk41"><path d="M60.74,1137.24 C130.09,1148.24 317.63,1177.98 421.89,1194.52" fill="none" id="A-UC14" style="stroke:#181818;stroke-width:1;"/></g><!--link A to UC15--><g class="link" data-entity-1="ent0003" data-entity-2="ent0026" data-link-type="association" data-source-line="59" id="lnk42"><path d="M47.19,1172.13 C64.54,1215.37 99.53,1279 155.2,1279 C155.2,1279 155.2,1279 496.26,1279 C608.76,1279 727.45,1204.34 778.34,1168.18" fill="none" id="A-UC15" style="stroke:#181818;stroke-width:1;"/></g><!--link UC7 to UC16--><g class="link" data-entity-1="ent0015" data-entity-2="ent0016" data-link-type="dependency" data-source-line="61" id="lnk43"><path d="M552.34,591.21 C609.28,603.61 691.8345,621.5859 747.2045,633.6459" fill="none" id="UC7-to-UC16" style="stroke:#181818;stroke-width:1;stroke-dasharray:7,7;"/><polygon fill="#181818" points="752.09,634.71,744.1474,628.8863,747.2045,633.6459,742.4449,636.703,752.09,634.71" style="stroke:#181818;stroke-width:1;stroke-linejoin:miter;stroke-miterlimit:10;"/><text fill="#000000" font-family="sans-serif" font-size="13" lengthAdjust="spacing" textLength="59.3569" x="627.63" y="605.0584">&#171;include&#187;</text></g><!--link UC7 to UC17--><g class="link" data-entity-1="ent0015" data-entity-2="ent0017" data-link-type="dependency" data-source-line="62" id="lnk44"><path d="M572.32,578.75 C622.32,578.59 682.21,578.3965 730.58,578.2365" fill="none" id="UC7-to-UC17" style="stroke:#181818;stroke-width:1;stroke-dasharray:7,7;"/><polygon fill="#181818" points="735.58,578.22,726.5668,574.2498,730.58,578.2365,726.5933,582.2497,735.58,578.22" style="stroke:#181818;stroke-width:1;stroke-linejoin:miter;stroke-miterlimit:10;"/><text fill="#000000" font-family="sans-serif" font-size="13" lengthAdjust="spacing" textLength="59.3569" x="627.63" y="574.9484">&#171;include&#187;</text></g><!--link UC18 to UC15--><g class="link" data-entity-1="ent0027" data-entity-2="ent0026" data-link-type="dependency" data-source-line="63" id="lnk45"><path d="M551.99,1005.71 C570.81,1011.77 591.7,1019.35 610.08,1028 C673.43,1057.83 737.509,1101.1471 773.719,1126.9671" fill="none" id="UC18-to-UC15" style="stroke:#181818;stroke-width:1;stroke-dasharray:7,7;"/><polygon fill="#181818" points="777.79,1129.87,772.7845,1121.388,773.719,1126.9671,768.1398,1127.9016,777.79,1129.87" style="stroke:#181818;stroke-width:1;stroke-linejoin:miter;stroke-miterlimit:10;"/><text fill="#000000" font-family="sans-serif" font-size="13" lengthAdjust="spacing" textLength="57.1924" x="628.63" y="1032.7084">&#171;extend&#187;</text></g><?plantuml-src ZLJBRjim4BphAnQ-v9IWyZj5OC0msboB6FQf5rfQAmjJfCf7co3jltTDYOnHgMvr6cXdXyDPaXAF3fm6GzMpWv8C5ewqoko9L2ECg44KJfkjUvK8uWTQNUD5iH75ILJObi-zGbKIiomqmMXFbXnwCm9XOH__xXn9iY8LTh6mBcjIuTSwotPmU_jpnLth5kooB2q0eqU3g9wqTdO4Rra6_7LUOFHPgx099IIlRg7n1qdVF0OgT9-tM0ZBx8rMrak71bYt44v8NNbiZMtoFd-lYQa2ZbGy8vGtNe4m1nCxnlsEHpIiRhLYYugms_HcqcTkRqZPmb1Icmvms2NlZQD8IhC-wmb9aIDEmBPhVrMrvW4ZUx0soiz3uwz_vESlvpMGu9Upec5NTIrK6RKN0z6XeIErILkdYrDCUJua-ih4xoHWwmmrQI2BQnEqx3RQi5t7ykf0Z3wIx9Zt0s7xfZ5KTsoMRbnoyg5F__JIQ1EDbESf9Hjv_bzPY_OAlFtDj3nppiSjwOwlKVayOwKDlTCdr-XI5oACcXsbZkdL1Vv8EnyyY_L1UsC7vxdiOk5WzdpHmvthm3Y2IGJJ26OHpDk78fot3YmZk8-0HnLHdeNtf0qkeab2quHcBBnPmDtTAXnG-0WF3wGAwKjShIvBYrufNyRQBDJmnQ4gkVGR?></g></svg>