<svg xmlns="http://www.w3.org/2000/svg" xmlns:xlink="http://www.w3.org/1999/xlink" contentStyleType="text/css" data-diagram-type="DESCRIPTION" height="708px" preserveAspectRatio="none" style="width:3035px;height:708px;background:#FFFFFF;" version="1.1" viewBox="0 0 3035 708" width="3035px" zoomAndPan="magnify"><?plantuml 1.2026.6?><defs/><g><!--cluster GreenRoots--><g class="cluster" data-qualified-name="GreenRoots" data-source-line="12" id="ent0006"><rect fill="none" height="287.7" rx="2.5" ry="2.5" style="stroke:#181818;stroke-width:1;" width="3000" x="7" y="406.96"/><text fill="#000000" font-family="sans-serif" font-size="14" font-weight="700" lengthAdjust="spacing" textLength="83.5352" x="1465.2324" y="422.4952">GreenRoots</text></g><!--cluster Fonctionnalites publiques--><g class="cluster" data-qualified-name="GreenRoots.Fonctionnalites publiques" data-source-line="14" id="ent0007"><rect fill="none" height="101.98" rx="2.5" ry="2.5" style="stroke:#181818;stroke-width:1;" width="1084" x="31" y="449.96"/><text fill="#000000" font-family="sans-serif" font-size="14" font-weight="700" lengthAdjust="spacing" textLength="186.3682" x="479.8159" y="465.4952">Fonctionnalites publiques</text></g><!--cluster Fonctionnalites utilisateur--><g class="cluster" data-qualified-name="GreenRoots.Fonctionnalites utilisateur" data-source-line="23" id="ent0014"><rect fill="none" height="214.48" rx="2.5" ry="2.5" style="stroke:#181818;stroke-width:1;" width="1024" x="1139" y="452.78"/><text fill="#000000" font-family="sans-serif" font-size="14" font-weight="700" lengthAdjust="spacing" textLength="189.0342" x="1556.4829" y="468.3152">Fonctionnalites utilisateur</text></g><!--cluster Fonctionnalites admin--><g class="cluster" data-qualified-name="GreenRoots.Fonctionnalites admin" data-source-line="33" id="ent0022"><rect fill="none" height="215.26" rx="2.5" ry="2.5" style="stroke:#181818;stroke-width:1;" width="796" x="2187" y="455.4"/><text fill="#000000" font-family="sans-serif" font-size="14" font-weight="700" lengthAdjust="spacing" textLength="159.7559" x="2505.1221" y="470.9352">Fonctionnalites admin</text></g><!--entity UC1--><g class="entity" data-qualified-name="GreenRoots.Fonctionnalites publiques.UC1" data-source-line="15" id="ent0008"><ellipse cx="136.0017" cy="510.4463" fill="#F1F1F1" rx="89.4817" ry="20.2963" style="stroke:#181818;stroke-width:0.5;"/><text fill="#000000" font-family="sans-serif" font-size="14" lengthAdjust="spacing" textLength="152.0518" x="59.9758" y="515.1905">Consulter le catalogue</text></g><!--entity UC2--><g class="entity" data-qualified-name="GreenRoots.Fonctionnalites publiques.UC2" data-source-line="16" id="ent0009"><ellipse cx="351.0027" cy="510.4525" fill="#F1F1F1" rx="90.8127" ry="20.5625" style="stroke:#181818;stroke-width:0.5;"/><text fill="#000000" font-family="sans-serif" font-size="14" lengthAdjust="spacing" textLength="155.0732" x="273.4661" y="515.1967">Voir la fiche d'un arbre</text></g><!--entity UC3--><g class="entity" data-qualified-name="GreenRoots.Fonctionnalites publiques.UC3" data-source-line="17" id="ent0010"><ellipse cx="549.9955" cy="510.4491" fill="#F1F1F1" rx="73.0455" ry="17.0091" style="stroke:#181818;stroke-width:0.5;"/><text fill="#000000" font-family="sans-serif" font-size="14" lengthAdjust="spacing" textLength="113.2646" x="493.3631" y="515.1932">Gerer son panier</text></g><!--entity UC4--><g class="entity" data-qualified-name="GreenRoots.Fonctionnalites publiques.UC4" data-source-line="18" id="ent0011"><ellipse cx="703.9991" cy="510.449" fill="#F1F1F1" rx="46.1991" ry="14.659" style="stroke:#181818;stroke-width:0.5;"/><text fill="#000000" font-family="sans-serif" font-size="14" lengthAdjust="spacing" textLength="61.0928" x="673.4527" y="515.1931">S'inscrire</text></g><!--entity UC5--><g class="entity" data-qualified-name="GreenRoots.Fonctionnalites publiques.UC5" data-source-line="19" id="ent0012"><ellipse cx="848.0022" cy="510.4504" fill="#F1F1F1" rx="62.8022" ry="14.9604" style="stroke:#181818;stroke-width:0.5;"/><text fill="#000000" font-family="sans-serif" font-size="14" lengthAdjust="spacing" textLength="86.6523" x="804.676" y="515.1946">Se connecter</text></g><!--entity UC6--><g class="entity" data-qualified-name="GreenRoots.Fonctionnalites publiques.UC6" data-source-line="20" id="ent0013"><ellipse cx="1021.995" cy="510.4459" fill="#F1F1F1" rx="76.685" ry="25.4859" style="stroke:#181818;stroke-width:0.5;"/><text fill="#000000" font-family="sans-serif" font-size="14" lengthAdjust="spacing" textLength="108.0625" x="967.9638" y="508.1452">Reinitialiser son</text><text fill="#000000" font-family="sans-serif" font-size="14" lengthAdjust="spacing" textLength="90.9932" x="976.4984" y="524.6335">mot de passe</text></g><!--entity UC7--><g class="entity" data-qualified-name="GreenRoots.Fonctionnalites utilisateur.UC7" data-source-line="24" id="ent0015"><ellipse cx="1231.9985" cy="510.4477" fill="#F1F1F1" rx="76.8885" ry="17.7777" style="stroke:#181818;stroke-width:0.5;"/><text fill="#000000" font-family="sans-serif" font-size="14" lengthAdjust="spacing" textLength="122.6436" x="1170.6767" y="515.1918">Passer commande</text></g><!--entity UC16--><g class="entity" data-qualified-name="GreenRoots.Fonctionnalites utilisateur.UC16" data-source-line="25" id="ent0016"><ellipse cx="1228.0037" cy="634.7967" fill="#F1F1F1" rx="70.3337" ry="16.4667" style="stroke:#181818;stroke-width:0.5;"/><text fill="#000000" font-family="sans-serif" font-size="14" lengthAdjust="spacing" textLength="106.4834" x="1174.762" y="639.5409">Verifier le stock</text></g><!--entity UC17--><g class="entity" data-qualified-name="GreenRoots.Fonctionnalites utilisateur.UC17" data-source-line="26" id="ent0017"><ellipse cx="1401.9955" cy="634.8011" fill="#F1F1F1" rx="69.1055" ry="16.2211" style="stroke:#181818;stroke-width:0.5;"/><text fill="#000000" font-family="sans-serif" font-size="14" lengthAdjust="spacing" textLength="103.3594" x="1350.3158" y="639.5452">Payer via Stripe</text></g><!--entity UC8--><g class="entity" data-qualified-name="GreenRoots.Fonctionnalites utilisateur.UC8" data-source-line="27" id="ent0018"><ellipse cx="1444.9951" cy="510.453" fill="#F1F1F1" rx="101.3651" ry="22.673" style="stroke:#181818;stroke-width:0.5;"/><text fill="#000000" font-family="sans-serif" font-size="14" lengthAdjust="spacing" textLength="178.623" x="1355.6836" y="515.1972">Consulter ses commandes</text></g><!--entity UC9--><g class="entity" data-qualified-name="GreenRoots.Fonctionnalites utilisateur.UC9" data-source-line="28" id="ent0019"><ellipse cx="1652.0043" cy="510.4549" fill="#F1F1F1" rx="70.4743" ry="16.4949" style="stroke:#181818;stroke-width:0.5;"/><text fill="#000000" font-family="sans-serif" font-size="14" lengthAdjust="spacing" textLength="106.8389" x="1598.5849" y="515.199">Gerer son profil</text></g><!--entity UC10--><g class="entity" data-qualified-name="GreenRoots.Fonctionnalites utilisateur.UC10" data-source-line="29" id="ent0020"><ellipse cx="1847.9967" cy="510.4453" fill="#F1F1F1" rx="90.4267" ry="20.4853" style="stroke:#181818;stroke-width:0.5;"/><text fill="#000000" font-family="sans-serif" font-size="14" lengthAdjust="spacing" textLength="154.1982" x="1770.8975" y="515.1895">Supprimer son compte</text></g><!--entity UC11--><g class="entity" data-qualified-name="GreenRoots.Fonctionnalites utilisateur.UC11" data-source-line="30" id="ent0021"><ellipse cx="2059.9971" cy="510.4534" fill="#F1F1F1" rx="87.0671" ry="19.8134" style="stroke:#181818;stroke-width:0.5;"/><text fill="#000000" font-family="sans-serif" font-size="14" lengthAdjust="spacing" textLength="146.5352" x="1986.7296" y="515.1976">Exporter ses donnees</text></g><!--entity UC12--><g class="entity" data-qualified-name="GreenRoots.Fonctionnalites admin.UC12" data-source-line="34" id="ent0023"><ellipse cx="2273.9962" cy="510.4532" fill="#F1F1F1" rx="70.9162" ry="16.5832" style="stroke:#181818;stroke-width:0.5;"/><text fill="#000000" font-family="sans-serif" font-size="14" lengthAdjust="spacing" textLength="107.9531" x="2220.0197" y="515.1974">Gerer les arbres</text></g><!--entity UC13--><g class="entity" data-qualified-name="GreenRoots.Fonctionnalites admin.UC13" data-source-line="35" id="ent0024"><ellipse cx="2461.9994" cy="510.4479" fill="#F1F1F1" rx="82.0894" ry="18.8179" style="stroke:#181818;stroke-width:0.5;"/><text fill="#000000" font-family="sans-serif" font-size="14" lengthAdjust="spacing" textLength="134.9961" x="2394.5014" y="515.192">Gerer les categories</text></g><!--entity UC14--><g class="entity" data-qualified-name="GreenRoots.Fonctionnalites admin.UC14" data-source-line="36" id="ent0025"><ellipse cx="2666.9964" cy="510.4493" fill="#F1F1F1" rx="88.2464" ry="20.0493" style="stroke:#181818;stroke-width:0.5;"/><text fill="#000000" font-family="sans-serif" font-size="14" lengthAdjust="spacing" textLength="149.2354" x="2592.3787" y="515.1934">Gerer les localisations</text></g><!--entity UC15--><g class="entity" data-qualified-name="GreenRoots.Fonctionnalites admin.UC15" data-source-line="37" id="ent0026"><ellipse cx="2879.0015" cy="634.8023" fill="#F1F1F1" rx="87.3115" ry="19.8623" style="stroke:#181818;stroke-width:0.5;"/><text fill="#000000" font-family="sans-serif" font-size="14" lengthAdjust="spacing" textLength="147.0957" x="2805.4537" y="639.5464">Gerer les commandes</text></g><!--entity UC18--><g class="entity" data-qualified-name="GreenRoots.Fonctionnalites admin.UC18" data-source-line="38" id="ent0027"><ellipse cx="2878.9983" cy="510.4517" fill="#F1F1F1" rx="88.2583" ry="20.0517" style="stroke:#181818;stroke-width:0.5;"/><text fill="#000000" font-family="sans-serif" font-size="14" lengthAdjust="spacing" textLength="149.2627" x="2804.367" y="515.1958">Rembourser via Stripe</text></g><!--entity V--><g class="entity" data-qualified-name="V" data-source-line="5" id="ent0001"><ellipse cx="704" cy="298.98" fill="#F1F1F1" rx="16" ry="16" style="stroke:#181818;stroke-width:0.5;"/><path d="M704,318.98 C708,318.98 711,318.98 715,314.98 C723,314.98 731,322.98 731,330.98 L731,334.98 C731,338.98 727,342.98 723,342.98 L685,342.98 C681,342.98 677,338.98 677,334.98 L677,330.98 C677,322.98 685,314.98 693,314.98 C697,318.98 700,318.98 704,318.98" fill="#F1F1F1" style="stroke:#181818;stroke-width:0.5;"/><text fill="#000000" font-family="sans-serif" font-size="14" lengthAdjust="spacing" textLength="51.8369" x="678.0815" y="357.0152">Visiteur</text></g><!--entity U--><g class="entity" data-qualified-name="U" data-source-line="6" id="ent0002"><ellipse cx="1651.9992" cy="160.49" fill="#F1F1F1" rx="16" ry="16" style="stroke:#181818;stroke-width:0.5;"/><path d="M1651.9992,180.49 C1655.9992,180.49 1658.9992,180.49 1662.9992,176.49 C1670.9992,176.49 1678.9992,184.49 1678.9992,192.49 L1678.9992,196.49 C1678.9992,200.49 1674.9992,204.49 1670.9992,204.49 L1632.9992,204.49 C1628.9992,204.49 1624.9992,200.49 1624.9992,196.49 L1624.9992,192.49 C1624.9992,184.49 1632.9992,176.49 1640.9992,176.49 C1644.9992,180.49 1647.9992,180.49 1651.9992,180.49" fill="#F1F1F1" style="stroke:#181818;stroke-width:0.5;"/><text fill="#000000" font-family="sans-serif" font-size="14" lengthAdjust="spacing" textLength="69.3984" x="1617.3" y="218.5252">Utilisateur</text></g><!--entity A--><g class="entity" data-qualified-name="A" data-source-line="7" id="ent0003"><ellipse cx="2462" cy="22" fill="#F1F1F1" rx="16" ry="16" style="stroke:#181818;stroke-width:0.5;"/><path d="M2462,42 C2466,42 2469,42 2473,38 C2481,38 2489,46 2489,54 L2489,58 C2489,62 2485,66 2481,66 L2443,66 C2439,66 2435,62 2435,58 L2435,54 C2435,46 2443,38 2451,38 C2455,42 2458,42 2462,42" fill="#F1F1F1" style="stroke:#181818;stroke-width:0.5;"/><text fill="#000000" font-family="sans-serif" font-size="14" lengthAdjust="spacing" textLength="44.2764" x="2439.8618" y="80.0352">Admin</text></g><!--link U to V--><g class="link" data-entity-1="ent0002" data-entity-2="ent0001" data-link-type="extension" data-source-line="9" id="lnk4"><path d="M1616.85,188.79 C1465.22,210.62 886.4163,293.9549 749.7963,313.6249" fill="none" id="U-to-V" style="stroke:#181818;stroke-width:1;"/><polygon fill="none" points="731.98,316.19,750.6513,319.5636,748.9413,307.6861,731.98,316.19" style="stroke:#181818;stroke-width:1;stroke-linejoin:miter;stroke-miterlimit:10;"/></g><!--link A to U--><g class="link" data-entity-1="ent0003" data-entity-2="ent0002" data-link-type="extension" data-source-line="10" id="lnk5"><path d="M2434.12,49.94 C2311.72,70.57 1839.8297,150.0787 1704.5397,172.8787" fill="none" id="A-to-U" style="stroke:#181818;stroke-width:1;"/><polygon fill="none" points="1686.79,175.87,1705.5368,178.7953,1703.5426,166.9621,1686.79,175.87" style="stroke:#181818;stroke-width:1;stroke-linejoin:miter;stroke-miterlimit:10;"/></g><!--link V to UC1--><g class="link" data-entity-1="ent0001" data-entity-2="ent0008" data-link-type="association" data-source-line="42" id="lnk28"><path d="M676.14,324.56 C588.47,332.29 319.61,358.77 243,398.96 C201.38,420.8 166.42,464.83 148.62,490.22" fill="none" id="V-UC1" style="stroke:#181818;stroke-width:1;"/></g><!--link V to UC2--><g class="link" data-entity-1="ent0001" data-entity-2="ent0009" data-link-type="association" data-source-line="43" id="lnk29"><path d="M676.07,326.38 C628.55,334.41 530.24,355.27 459,398.96 C419.44,423.23 384.03,465.15 365.22,489.79" fill="none" id="V-UC2" style="stroke:#181818;stroke-width:1;"/></g><!--link V to UC3--><g class="link" data-entity-1="ent0001" data-entity-2="ent0010" data-link-type="association" data-source-line="44" id="lnk30"><path d="M676.19,355.39 C664.92,368.88 651.81,384.64 640,398.96 C612.46,432.37 580.52,471.74 563.06,493.3" fill="none" id="V-UC3" style="stroke:#181818;stroke-width:1;"/></g><!--link V to UC4--><g class="link" data-entity-1="ent0001" data-entity-2="ent0011" data-link-type="association" data-source-line="45" id="lnk31"><path d="M704,360.11 C704,401.99 704,467.28 704,495.59" fill="none" id="V-UC4" style="stroke:#181818;stroke-width:1;"/></g><!--link V to UC5--><g class="link" data-entity-1="ent0001" data-entity-2="ent0012" data-link-type="association" data-source-line="46" id="lnk32"><path d="M731.91,354.68 C743.31,368.2 756.5,384.17 768,398.96 C794.31,432.8 823.41,474.02 838.2,495.27" fill="none" id="V-UC5" style="stroke:#181818;stroke-width:1;"/></g><!--link V to UC6--><g class="link" data-entity-1="ent0001" data-entity-2="ent0013" data-link-type="association" data-source-line="47" id="lnk33"><path d="M731.99,326.84 C776.64,335.25 865.32,356.27 928,398.96 C961.72,421.93 990.41,460.07 1006.93,484.99" fill="none" id="V-UC6" style="stroke:#181818;stroke-width:1;"/></g><!--link U to UC7--><g class="link" data-entity-1="ent0002" data-entity-2="ent0015" data-link-type="association" data-source-line="49" id="lnk34"><path d="M1616.91,202.51 C1554.62,236.77 1422.22,313.77 1326,398.96 C1292.81,428.35 1260.83,469.55 1244.08,492.43" fill="none" id="U-UC7" style="stroke:#181818;stroke-width:1;"/></g><!--link U to UC8--><g class="link" data-entity-1="ent0002" data-entity-2="ent0018" data-link-type="association" data-source-line="50" id="lnk35"><path d="M1627.85,221.73 C1584.23,290.37 1493.62,432.95 1458.93,487.54" fill="none" id="U-UC8" style="stroke:#181818;stroke-width:1;"/></g><!--link U to UC9--><g class="link" data-entity-1="ent0002" data-entity-2="ent0019" data-link-type="association" data-source-line="51" id="lnk36"><path d="M1652,221.73 C1652,293.05 1652,444.22 1652,493.53" fill="none" id="U-UC9" style="stroke:#181818;stroke-width:1;"/></g><!--link U to UC10--><g class="link" data-entity-1="ent0002" data-entity-2="ent0020" data-link-type="association" data-source-line="52" id="lnk37"><path d="M1674.87,221.73 C1716.77,291.38 1804.49,437.15 1836.22,489.88" fill="none" id="U-UC10" style="stroke:#181818;stroke-width:1;"/></g><!--link U to UC11--><g class="link" data-entity-1="ent0002" data-entity-2="ent0021" data-link-type="association" data-source-line="53" id="lnk38"><path d="M1686.93,205.21 C1745.25,241.76 1865,319.82 1956,398.96 C1989.99,428.53 2024.97,467.89 2044.46,490.77" fill="none" id="U-UC11" style="stroke:#181818;stroke-width:1;"/></g><!--link A to UC12--><g class="link" data-entity-1="ent0003" data-entity-2="ent0023" data-link-type="association" data-source-line="55" id="lnk39"><path d="M2446.62,83.23 C2407.77,179.16 2306.92,428.17 2280.44,493.54" fill="none" id="A-UC12" style="stroke:#181818;stroke-width:1;"/></g><!--link A to UC13--><g class="link" data-entity-1="ent0003" data-entity-2="ent0024" data-link-type="association" data-source-line="56" id="lnk40"><path d="M2462,83.23 C2462,178.07 2462,422.56 2462,491.26" fill="none" id="A-UC13" style="stroke:#181818;stroke-width:1;"/></g><!--link A to UC14--><g class="link" data-entity-1="ent0003" data-entity-2="ent0025" data-link-type="association" data-source-line="57" id="lnk41"><path d="M2478.78,83.23 C2520.47,177.64 2627.65,420.33 2658.55,490.3" fill="none" id="A-UC14" style="stroke:#181818;stroke-width:1;"/></g><!--link A to UC15--><g class="link" data-entity-1="ent0003" data-entity-2="ent0026" data-link-type="association" data-source-line="58" id="lnk42"><path d="M2489.67,45.99 C2602.26,49.78 3020,71.28 3020,181.73 C3020,181.73 3020,181.73 3020,511.45 C3020,563.63 2964.23,598.57 2922.84,617.31" fill="none" id="A-UC15" style="stroke:#181818;stroke-width:1;"/></g><!--link UC7 to UC16--><g class="link" data-entity-1="ent0015" data-entity-2="ent0016" data-link-type="dependency" data-source-line="60" id="lnk43"><path d="M1231.44,528.72 C1230.66,552.56 1229.4233,590.2227 1228.6733,613.1727" fill="none" id="UC7-to-UC16" style="stroke:#181818;stroke-width:1;stroke-dasharray:7,7;"/><polygon fill="#181818" points="1228.51,618.17,1232.8018,609.3055,1228.6733,613.1727,1224.8061,609.0442,1228.51,618.17" style="stroke:#181818;stroke-width:1;stroke-linejoin:miter;stroke-miterlimit:10;"/><text fill="#000000" font-family="sans-serif" font-size="13" lengthAdjust="spacing" textLength="59.3569" x="1231.12" y="581.5084">&#171;include&#187;</text></g><!--link UC7 to UC17--><g class="link" data-entity-1="ent0015" data-entity-2="ent0017" data-link-type="dependency" data-source-line="61" id="lnk44"><path d="M1254.57,527.7 C1287.81,551.62 1345.3722,593.0386 1377.4022,616.0986" fill="none" id="UC7-to-UC17" style="stroke:#181818;stroke-width:1;stroke-dasharray:7,7;"/><polygon fill="#181818" points="1381.46,619.02,1376.4931,610.5153,1377.4022,616.0986,1371.8189,617.0077,1381.46,619.02" style="stroke:#181818;stroke-width:1;stroke-linejoin:miter;stroke-miterlimit:10;"/><text fill="#000000" font-family="sans-serif" font-size="13" lengthAdjust="spacing" textLength="59.3569" x="1333.23" y="581.5084">&#171;include&#187;</text></g><!--link UC18 to UC15--><g class="link" data-entity-1="ent0027" data-entity-2="ent0026" data-link-type="dependency" data-source-line="62" id="lnk45"><path d="M2879,530.84 C2879,553.75 2879,586.63 2879,609.5" fill="none" id="UC18-to-UC15" style="stroke:#181818;stroke-width:1;stroke-dasharray:7,7;"/><polygon fill="#181818" points="2879,614.5,2883,605.5,2879,609.5,2875,605.5,2879,614.5" style="stroke:#181818;stroke-width:1;stroke-linejoin:miter;stroke-miterlimit:10;"/><text fill="#000000" font-family="sans-serif" font-size="13" lengthAdjust="spacing" textLength="57.1924" x="2880" y="581.5084">&#171;extend&#187;</text></g><?plantuml-src ZLJBRjim4BphAnQwv9IWyZj5OC0msboB6FQf5vfQkmjJfCf7co3jltSjYMnGgMfr6cXdXwFPfTo5T2sig418R-pEloW4yHsTgJ1pgLWBUH5dRCiMfHVwh33BcYR83-J8Ox0v20U7-7RlIP4JgR2FXKrPaMvURR9i3xUtFzRSjMd1FilI0P0_MaJzP8ntERnc6V3JUO7yez7Iaz5QA3xTGHsEYhu6RAZGFS6X58xPMwDTK1ujiAuKNYXp3jWQsnPz_i4GKmMSI7v1A6-21c6FDdPC-XsFQ5dT6SqMDM7tqTjfdxcx8UsafQGs6-2mI_usZY8fpVki9oHDdZW1rvxzMLV6GudimRaelsWQV_uZl_1sNWC9VhegMdPLLKANKNiv41rQEb6RjFD6NcBAYo7H5oP-8m4xRwbE0rcEJT2nssZ3THshqO5OSoBLCUy7mWvrRQdgs2nT--JaNP_-uRasDXefhrDADehYlx8MxHLu_PjfTULSrotfJiQelCzuDfP-qwTZT6MaQ4RDZbB7RFI0Fz8k1dUnEffWtU0yLrqi7Co1BtfpvpemYM0QmIo2UGIBzaVHx5i7LX7SHy2ZYgZ8clz96rn4quHc2SrPUBk4kxjriw3m7XuUI4iLIboltvQMlLAnYhLvKyDdZxhaqYy0?></g></svg>